# xmcd CD database file
#
# Track frame offsets:
#	150
#	15572
#	37671
#	49471
#	73075
#	85584
#	105046
#	123454
#	138600
#	161218
#	172781
#	192082
#	208793
#	234217
#	250968
#	269016
#	284969
#	300946
#	317673
#
# Disc length: 4473 seconds
#
# Revision: 0
# Processed by: cddbd v1.5.2PL0 Copyright (c) Steve Scherf et al.
# Submitted via: CDex 1.51
#
DISCID=06117713
DTITLE=Luiz Goiano e Girsel da Viola - Luiz Goiano e Girsel da Viola
DYEAR=2008
DGENRE=Country
TTITLE0=Luiz Goiano e Girsel da Viola - Amar de Mais Tambem Fazer
TTITLE1=Luiz Goiano e Girsel da Viola - Avohai
TTITLE2=Luiz Goiano e Girsel da Viola - Cadeira Vazia
TTITLE3=Luiz Goiano e Girsel da Viola - Chora Viola
TTITLE4=Luiz Goiano e Girsel da Viola - Cobertor de Orelha
TTITLE5=Luiz Goiano e Girsel da Viola - Companheiro de Ferrerinha
TTITLE6=Luiz Goiano e Girsel da Viola - Coração Ta Em Pedaços
TTITLE7=Luiz Goiano e Girsel da Viola - Fujo de Ti
TTITLE8=Luiz Goiano e Girsel da Viola - Garoto de Aluguel
TTITLE9=Luiz Goiano e Girsel da Viola - Nois Capota Mais Não Breca
TTITLE10=Luiz Goiano e Girsel da Viola - Amor é Verdade
TTITLE11=Luiz Goiano e Girsel da Viola - Paixão de Segundo
TTITLE12=Luiz Goiano e Girsel da Viola - Passaro Campana
TTITLE13=Luiz Goiano e Girsel da Viola - Pout Pourri de Toadas
TTITLE14=Luiz Goiano e Girsel da Viola - Quimica do Amor
TTITLE15=Luiz Goiano e Girsel da Viola - Rei Do Canoeiro
TTITLE16=Luiz Goiano e Girsel da Viola - Simplão de Tudo
TTITLE17=Luiz Goiano e Girsel da Viola - Violeiro de Furacão
TTITLE18=Luiz Goiano e Girsel da Viola - Nenhuma Palavra
EXTD=YEAR: 2008
EXTT0=
EXTT1=
EXTT2=
EXTT3=
EXTT4=
EXTT5=
EXTT6=
EXTT7=
EXTT8=
EXTT9=
EXTT10=
EXTT11=
EXTT12=
EXTT13=
EXTT14=
EXTT15=
EXTT16=
EXTT17=
EXTT18=
PLAYORDER=
